<svg xmlns="http://www.w3.org/2000/svg" width="128" height="128" viewBox="0 0 128 128">
  <defs>
    <linearGradient id="bg" x1="0" y1="0" x2="1" y2="1">
      <stop offset="0%" stop-color="#4a86e8"/>
      <stop offset="100%" stop-color="#2755c4"/>
    </linearGradient>
  </defs>
  <rect width="128" height="128" rx="28" fill="url(#bg)"/>
  <!-- headset outline -->
  <g fill="#ffffff">
    <!-- band -->
    <path d="M 26 68 a 38 38 0 0 1 76 0 l 0 6 a 8 8 0 0 0 -9 8 -11 11 0 0 0 -11 -8 8 8 0 0 0 -8 8
             l 0 6 a 8 8 0 0 0 16 2 h 24 v -6 a 46 46 0 0 0 -92 0 v 6 h 24 a 8 8 0 0 0 16 -2 l0 -6
             a 8 8 0 0 0 -8 -8 -11 11 0 0 0 -11 8 8 8 0 0 0 -9 -8 z"/>
    <!-- mic stem -->
    <rect x="66" y="86" width="6" height="14" rx="3"/>
    <!-- play triangle -->
    <path d="M 58 44 L 58 60 L 70 52 Z"/>
  </g>
</svg>